<?xml version="1.0" encoding="iso-8859-1"?>
<!-- Generator: Adobe Illustrator 18.0.0, SVG Export Plug-In . SVG Version: 6.00 Build 0)  -->
<!DOCTYPE svg PUBLIC "-//W3C//DTD SVG 1.1//EN" "http://www.w3.org/Graphics/SVG/1.1/DTD/svg11.dtd">
<svg version="1.1" id="Capa_1" xmlns="http://www.w3.org/2000/svg" xmlns:xlink="http://www.w3.org/1999/xlink" x="0px" y="0px"
	 viewBox="0 0 415.859 415.859" style="enable-background:new 0 0 415.859 415.859;" xml:space="preserve">
<g>
	<g>
		<path style="fill:#73D0F4;" d="M172.743,243.39c-2.166,2.568-5.309,4.111-8.666,4.254c-3.363,0.141-6.617-1.129-8.994-3.504
			l-32.221-32.219h-81.02l120.965,116.045L377.425,82.533h-69.031L172.743,243.39z"/>
		<path style="fill:#3D6889;" d="M414.786,65.572c-1.947-4.287-6.219-7.039-10.928-7.039H302.815c-3.537,0-6.895,1.561-9.174,4.264
			L162.817,217.933l-26.498-26.498c-2.252-2.25-5.303-3.514-8.486-3.514H12.001c-4.898,0-9.307,2.977-11.135,7.521
			c-1.826,4.547-0.709,9.746,2.826,13.137l151.568,145.406c2.24,2.148,5.219,3.34,8.307,3.34c0.176,0,0.352-0.004,0.527-0.012
			c3.275-0.143,6.35-1.621,8.508-4.088L412.892,78.431C415.991,74.888,416.731,69.859,414.786,65.572z M162.808,327.967
			L41.843,211.922h81.02l32.221,32.219c2.377,2.375,5.631,3.645,8.994,3.504c3.357-0.143,6.5-1.686,8.666-4.254l135.65-160.857
			h69.031L162.808,327.967z"/>
	</g>
</g>
<g>
</g>
<g>
</g>
<g>
</g>
<g>
</g>
<g>
</g>
<g>
</g>
<g>
</g>
<g>
</g>
<g>
</g>
<g>
</g>
<g>
</g>
<g>
</g>
<g>
</g>
<g>
</g>
<g>
</g>
</svg>
