<?xml version="1.0" encoding="iso-8859-1"?>
<!-- Generator: Adobe Illustrator 18.0.0, SVG Export Plug-In . SVG Version: 6.00 Build 0)  -->
<!DOCTYPE svg PUBLIC "-//W3C//DTD SVG 1.1//EN" "http://www.w3.org/Graphics/SVG/1.1/DTD/svg11.dtd">
<svg version="1.1" id="Capa_1" xmlns="http://www.w3.org/2000/svg" xmlns:xlink="http://www.w3.org/1999/xlink" x="0px" y="0px"
	 viewBox="0 0 400.064 400.064" style="enable-background:new 0 0 400.064 400.064;" xml:space="preserve">
<g>
	<g>
		<path style="fill:#73D0F4;" d="M137.052,121.508c6.627,0,12,5.372,12,12V288.09h101.951V133.508c0-6.628,5.373-12,12-12h32.723
			l-95.699-76.259l-95.699,76.259H137.052z"/>
		<g>
			<path style="fill:#3D6889;" d="M70.009,145.508h55.039V300.09c0,6.628,5.372,12,12,12h125.951c6.627,0,12-5.372,12-12V145.508
				h55.037c0.008,0,0.016,0,0.02,0c6.628,0,12-5.373,12-12c0-4.003-1.959-7.548-4.972-9.728L207.501,20.519
				c-4.377-3.487-10.58-3.487-14.957,0L62.53,124.123c-3.989,3.179-5.532,8.531-3.849,13.346
				C60.365,142.284,64.908,145.508,70.009,145.508z M295.722,121.508h-32.723c-6.627,0-12,5.372-12,12V288.09H149.048V133.508
				c0-6.628-5.373-12-12-12h-32.725l95.699-76.259L295.722,121.508z"/>
			<path style="fill:#3D6889;" d="M388.064,261.171c-6.627,0-12,5.373-12,12v84.989H24v-84.989c0-6.627-5.373-12-12-12
				c-6.627,0-12,5.373-12,12v96.989c0,6.627,5.373,12,12,12h376.064c6.627,0,12-5.373,12-12v-96.989
				C400.064,266.544,394.691,261.171,388.064,261.171z"/>
		</g>
	</g>
</g>
<g>
</g>
<g>
</g>
<g>
</g>
<g>
</g>
<g>
</g>
<g>
</g>
<g>
</g>
<g>
</g>
<g>
</g>
<g>
</g>
<g>
</g>
<g>
</g>
<g>
</g>
<g>
</g>
<g>
</g>
</svg>
