<?xml version="1.0" encoding="iso-8859-1"?>
<!-- Generator: Adobe Illustrator 18.0.0, SVG Export Plug-In . SVG Version: 6.00 Build 0)  -->
<!DOCTYPE svg PUBLIC "-//W3C//DTD SVG 1.1//EN" "http://www.w3.org/Graphics/SVG/1.1/DTD/svg11.dtd">
<svg version="1.1" id="Capa_1" xmlns="http://www.w3.org/2000/svg" xmlns:xlink="http://www.w3.org/1999/xlink" x="0px" y="0px"
	 viewBox="0 0 382.975 382.975" style="enable-background:new 0 0 382.975 382.975;" xml:space="preserve">
<g>
	<g>
		<path style="fill:none;" d="M346.566,24H36.408C29.566,24,24,29.566,24,36.408v310.158c0,6.842,5.566,12.408,12.408,12.408
			h310.158c6.842,0,12.408-5.566,12.408-12.408V36.408C358.975,29.566,353.408,24,346.566,24z M286.441,201L111.16,335.765
			c-2.137,1.645-4.717,2.487-7.316,2.487c-1.805,0-3.619-0.407-5.301-1.235c-4.1-2.02-6.697-6.193-6.697-10.765V56.724
			c0-4.571,2.598-8.745,6.697-10.765c4.104-2.021,8.994-1.534,12.617,1.252l175.281,134.763c2.955,2.271,4.686,5.787,4.686,9.514
			C291.127,195.214,289.397,198.729,286.441,201z"/>
		<path style="fill:#73D0F4;" d="M115.846,301.889L259.44,191.487l-143.594-110.4V301.889z M140.703,238.054l74.113-56.98
			c5.256-4.04,12.787-3.056,16.828,2.199c4.039,5.254,3.055,12.787-2.199,16.827l-74.113,56.981
			c-2.18,1.676-4.752,2.487-7.305,2.487c-3.6,0-7.158-1.612-9.523-4.687C134.465,249.627,135.449,242.093,140.703,238.054z"/>
		<path style="fill:#3D6889;" d="M346.566,0H36.408C16.332,0,0,16.333,0,36.408v310.158c0,20.076,16.332,36.408,36.408,36.408
			h310.158c20.074,0,36.408-16.332,36.408-36.408V36.408C382.975,16.333,366.641,0,346.566,0z M358.975,346.566
			c0,6.842-5.566,12.408-12.408,12.408H36.408c-6.842,0-12.408-5.566-12.408-12.408V36.408C24,29.566,29.566,24,36.408,24h310.158
			c6.842,0,12.408,5.566,12.408,12.408V346.566z"/>
		<path style="fill:#3D6889;" d="M286.441,181.974L111.16,47.211c-3.623-2.786-8.514-3.273-12.617-1.252
			c-4.1,2.02-6.697,6.193-6.697,10.765v269.528c0,4.571,2.598,8.745,6.697,10.765c1.682,0.828,3.496,1.235,5.301,1.235
			c2.6,0,5.18-0.843,7.316-2.487L286.441,201c2.955-2.271,4.686-5.786,4.686-9.513C291.127,187.761,289.397,184.245,286.441,181.974
			z M115.846,301.889V81.087l143.594,110.4L115.846,301.889z"/>
		<path style="fill:#3D6889;" d="M148.027,259.567c2.553,0,5.125-0.812,7.305-2.487l74.113-56.981
			c5.254-4.04,6.238-11.573,2.199-16.827c-4.041-5.255-11.572-6.239-16.828-2.199l-74.113,56.98
			c-5.254,4.039-6.238,11.573-2.199,16.827C140.869,257.955,144.428,259.567,148.027,259.567z"/>
	</g>
</g>
<g>
</g>
<g>
</g>
<g>
</g>
<g>
</g>
<g>
</g>
<g>
</g>
<g>
</g>
<g>
</g>
<g>
</g>
<g>
</g>
<g>
</g>
<g>
</g>
<g>
</g>
<g>
</g>
<g>
</g>
</svg>
