<?xml version="1.0" encoding="iso-8859-1"?>
<!-- Generator: Adobe Illustrator 18.0.0, SVG Export Plug-In . SVG Version: 6.00 Build 0)  -->
<!DOCTYPE svg PUBLIC "-//W3C//DTD SVG 1.1//EN" "http://www.w3.org/Graphics/SVG/1.1/DTD/svg11.dtd">
<svg version="1.1" id="Capa_1" xmlns="http://www.w3.org/2000/svg" xmlns:xlink="http://www.w3.org/1999/xlink" x="0px" y="0px"
	 viewBox="0 0 400.065 400.065" style="enable-background:new 0 0 400.065 400.065;" xml:space="preserve">
<g>
	<g>
		<path style="fill:#73D0F4;" d="M295.73,208.485h-32.725c-6.627,0-12-5.372-12-12V41.904H149.057v154.581c0,6.628-5.373,12-12,12
			H104.33l95.701,76.262L295.73,208.485z"/>
		<path style="fill:#3D6889;" d="M62.539,205.87l130.014,103.606c2.188,1.744,4.832,2.615,7.479,2.615
			c2.645,0,5.291-0.872,7.479-2.615L337.523,205.87c3.988-3.179,5.531-8.532,3.848-13.346c-1.684-4.814-6.227-8.039-11.326-8.039
			h-55.039V29.904c0-6.628-5.373-12-12-12H137.057c-6.629,0-12,5.372-12,12v154.581H70.018c-5.102,0-9.645,3.224-11.328,8.039
			C57.006,197.338,58.549,202.691,62.539,205.87z M137.057,208.485c6.627,0,12-5.372,12-12V41.904h101.949v154.581
			c0,6.628,5.373,12,12,12h32.725l-95.699,76.262l-95.701-76.262H137.057z"/>
		<path style="fill:#3D6889;" d="M388.065,261.172c-6.627,0-12,5.373-12,12v84.988H24v-84.988c0-6.627-5.373-12-12-12
			c-6.627,0-12,5.373-12,12v96.988c0,6.628,5.373,12,12,12h376.065c6.627,0,12-5.372,12-12v-96.988
			C400.065,266.545,394.691,261.172,388.065,261.172z"/>
	</g>
</g>
<g>
</g>
<g>
</g>
<g>
</g>
<g>
</g>
<g>
</g>
<g>
</g>
<g>
</g>
<g>
</g>
<g>
</g>
<g>
</g>
<g>
</g>
<g>
</g>
<g>
</g>
<g>
</g>
<g>
</g>
</svg>
